<svg width="30" height="30" viewBox="0 0 30 30" fill="none" xmlns="http://www.w3.org/2000/svg">
<path d="M28 15.3334C28.0047 17.0932 27.5764 18.8292 26.75 20.4C25.77 22.2823 24.2635 23.8656 22.3992 24.9724C20.5349 26.0792 18.3864 26.6659 16.1944 26.6667C14.3613 26.6713 12.5529 26.2601 10.9167 25.4667L3 28L5.63888 20.4C4.8124 18.8292 4.38411 17.0932 4.38889 15.3334C4.38973 13.229 5.00085 11.1665 6.15377 9.37676C7.3067 7.58703 8.9559 6.14079 10.9167 5.20004C12.5529 4.40661 14.3613 3.99545 16.1944 4.00004H16.8889C19.7838 4.15336 22.5181 5.32638 24.5682 7.29451C26.6183 9.26264 27.8402 11.8876 28 14.6667V15.3334Z" stroke="black" stroke-width="2" stroke-linecap="round" stroke-linejoin="round"/>
</svg>
