<svg width="120" height="100" viewBox="0 0 120 100" fill="none" xmlns="http://www.w3.org/2000/svg">
<rect x="1" y="1" width="118" height="98" rx="19" stroke="black" stroke-width="2"/>
<path d="M60.432 84.224C60.496 83.824 60.528 83.376 60.528 82.912C60.528 82.352 60.48 81.824 60.384 81.344H62.944V84.224H60.432ZM56.72 86.272C55.648 86.272 54.912 85.104 54.912 82.912C54.912 80.736 55.648 79.568 56.72 79.568C57.808 79.568 58.544 80.736 58.544 82.912C58.544 85.104 57.808 86.272 56.72 86.272ZM62.944 76.624V79.648H59.808C59.152 78.384 58.048 77.664 56.72 77.664C54.528 77.664 52.912 79.68 52.912 82.912C52.912 86.16 54.528 88.192 56.72 88.192C58.144 88.208 59.28 87.376 59.936 85.936H62.944V91.408H65.056V76.624H62.944Z" fill="black"/>
<path d="M47.8888 23.3093L43.8888 24.9247L37.4443 32.7708L33.4443 42.6939L35.2221 47.5401C36.3377 51.0404 38.3537 54.1714 41.6666 56.7708L43.8888 53.6942C43.8888 53.6942 47.2861 60.8111 53.4337 61.965C53.4337 61.965 62.5554 63.7521 67.2959 61.1554C70.3359 59.4911 71.2221 57.0791 71.2221 57.0791L74.2594 53.925L75.6666 56.0785L77.5181 56.0019L82.3332 49.3096L83.8888 44.3102L83.7403 40.1564L81.6666 35.0794L77.3706 28.233C77.3706 28.233 74.9999 23.6942 70.111 24.6173C70.111 24.6173 64.3332 20.1561 59.5928 20.8484C54.8523 21.5407 55.5181 19.6945 47.8888 23.3093Z" fill="white"/>
<path d="M59.0002 53.4634L56.2598 55.6945H54.0376L53.9629 59.2326L54.6296 62.4634L55.5931 64.2329L58.1113 65.6175L62.1851 65.0794L63.5931 63.464L64.482 59.5409L64.2598 55.8486L62.482 56.0794L59.0002 53.4634Z" fill="#EA5A47"/>
<path d="M55.8886 43.9253L54.4814 47.3868L56.4068 48.5407L57.5179 49.0022L61.3703 49.1564L63.9623 47.0794L62.4068 44.0794L55.8886 43.9253Z" fill="#3F3F3F"/>
<path d="M53.2278 37.6388C53.2278 37.6388 51.6233 38.7852 50.7851 38.2554C50.5857 38.1293 50.4121 37.9637 50.2743 37.768C50.1365 37.5722 50.0372 37.3502 49.982 37.1147C49.9268 36.8791 49.9169 36.6345 49.9527 36.3949C49.9885 36.1553 50.0695 35.9254 50.1909 35.7183C50.4361 35.3 50.8312 35.0001 51.2894 34.8843C51.5162 34.827 51.7517 34.8167 51.9825 34.8539C52.2132 34.8911 52.4346 34.9752 52.634 35.1012C53.4722 35.632 53.2278 37.6388 53.2278 37.6388Z" fill="black"/>
<path d="M60.5085 47.4443C60.5273 47.5916 60.5801 47.732 60.6623 47.8536C60.7446 47.9752 60.8539 48.0743 60.9809 48.1426C61.108 48.211 61.249 48.2464 61.3921 48.246C61.5352 48.2456 61.676 48.2094 61.8027 48.1403L63.7405 47.0825L62.7112 44.568C62.643 44.4013 62.5291 44.2592 62.3837 44.1592C62.2383 44.0593 62.0678 44.0059 61.8934 44.0059H56.4303C56.2494 44.0059 56.0728 44.0633 55.9241 44.1704C55.7754 44.2774 55.6618 44.429 55.5983 44.6049L54.6294 47.2846L56.6854 48.1634C56.808 48.2157 56.9402 48.2389 57.0726 48.2312C57.2049 48.2235 57.3339 48.1853 57.4501 48.1192C57.5663 48.0531 57.6669 47.9608 57.7443 47.8492C57.8218 47.7375 57.8742 47.6093 57.8978 47.4739M54.0543 56.0252C54.0543 56.0252 53.4161 64.1419 56.7281 65.1979C59.0792 65.9483 61.3058 65.6899 62.1165 64.9671C62.8943 64.2748 64.4561 60.8372 63.7405 56.0252" stroke="black" stroke-width="2.5" stroke-miterlimit="10" stroke-linecap="round" stroke-linejoin="round"/>
<path d="M66.3459 37.6388C66.3459 37.6388 67.9503 38.7852 68.7886 38.2554C69.1913 38.0008 69.4802 37.5905 69.5917 37.1147C69.7031 36.6389 69.628 36.1366 69.3828 35.7183C69.1376 35.3001 68.7425 35.0001 68.2843 34.8843C67.8261 34.7686 67.3425 34.8466 66.9397 35.1012C66.1006 35.632 66.3459 37.6388 66.3459 37.6388Z" fill="black"/>
<path d="M49.7783 49.3906C49.356 52.7155 51.764 54.6983 53.5863 55.7044C54.1051 55.9938 54.6938 56.1203 55.2806 56.0683C55.8674 56.0163 56.427 55.7882 56.8911 55.4118L59.1845 53.5435L61.4796 55.4118C61.9436 55.7881 62.503 56.0162 63.0896 56.0683C63.6762 56.1204 64.2648 55.9943 64.7836 55.7053C66.6058 54.6983 69.0147 52.7146 68.5925 49.3896" stroke="black" stroke-width="2.5" stroke-miterlimit="10" stroke-linecap="round" stroke-linejoin="round"/>
<path d="M44.7334 36.0221C42.6747 40.7852 44.2827 48.0452 44.8401 50.2153C44.9477 50.6353 44.9077 51.0814 44.7272 51.4735L42.9601 55.3448C42.4063 56.5587 40.833 56.7784 40.0001 55.751C37.1618 52.2562 32.3921 45.2372 34.1778 40.3495C40.4561 23.171 48.2836 23.6021 48.2836 23.6021C50.8125 21.8169 59.9316 17.1978 70.3387 24.4098C70.3387 24.4098 78.0116 22.8239 83.617 40.0439C85.2196 44.9704 80.5681 51.9212 77.7939 55.4085C76.9663 56.4489 75.3796 56.2328 74.8232 55.0135L73.0676 51.1688C72.887 50.7768 72.847 50.3307 72.9547 49.9107C73.513 47.7405 75.1201 40.4805 73.0614 35.7175" stroke="black" stroke-width="2.5" stroke-miterlimit="10" stroke-linecap="round" stroke-linejoin="round"/>
<path d="M73.7822 52.7349C73.7822 52.7349 71.0471 58.9389 66.8453 60.3697M44.2773 53.202C44.2773 53.202 47.0133 58.8161 51.2151 60.2469M59.1849 53.5435V50.7466" stroke="black" stroke-width="2.5" stroke-miterlimit="10" stroke-linecap="round" stroke-linejoin="round"/>
<path d="M63.465 18.1774C66.1316 17.7159 68.7983 24.1774 68.7983 24.1774C68.7983 24.1774 75.9094 21.4082 76.7983 23.2543C77.6872 25.1005 74.5761 30.639 73.2428 31.1005C71.0205 32.0236 68.7983 24.1774 68.7983 24.1774C68.7983 24.1774 63.0205 27.8698 60.7983 26.4851C58.5761 25.1004 60.7983 18.6389 63.465 18.1774Z" fill="#FF007A"/>
<path d="M68.7983 24.1774C68.7983 24.1774 66.1316 17.7159 63.465 18.1774C60.7983 18.6389 58.5761 25.1004 60.7983 26.4851C63.0205 27.8698 68.7983 24.1774 68.7983 24.1774ZM68.7983 24.1774C68.7983 24.1774 75.9094 21.4082 76.7983 23.2543C77.6872 25.1005 74.5761 30.639 73.2428 31.1005C71.0205 32.0236 68.7983 24.1774 68.7983 24.1774Z" stroke="black" stroke-width="2.5"/>
</svg>
