<svg width="54" height="54" viewBox="0 0 54 54" fill="none" xmlns="http://www.w3.org/2000/svg">
<path d="M15.8888 9.30929L11.8888 10.9247L5.44434 18.7708L1.44434 28.6939L3.22211 33.5401C4.33767 37.0404 6.35367 40.1714 9.66656 42.7708L11.8888 39.6942C11.8888 39.6942 15.2861 46.8111 21.4337 47.965C21.4337 47.965 30.5554 49.7521 35.2959 47.1554C38.3359 45.4911 39.2221 43.0791 39.2221 43.0791L42.2594 39.925L43.6666 42.0785L45.5181 42.0019L50.3332 35.3096L51.8888 30.3102L51.7403 26.1564L49.6666 21.0794L45.3706 14.233C45.3706 14.233 42.9999 9.69422 38.111 10.6173C38.111 10.6173 32.3332 6.15606 27.5928 6.84837C22.8523 7.54068 23.5181 5.69452 15.8888 9.30929Z" fill="white"/>
<path d="M27.0002 39.4634L24.2598 41.6945H22.0376L21.9629 45.2326L22.6296 48.4634L23.5931 50.2329L26.1113 51.6175L30.1851 51.0794L31.5931 49.464L32.482 45.5409L32.2598 41.8486L30.482 42.0794L27.0002 39.4634Z" fill="#EA5A47"/>
<path d="M23.8886 29.9253L22.4814 33.3868L24.4068 34.5407L25.5179 35.0022L29.3703 35.1564L31.9623 33.0794L30.4068 30.0794L23.8886 29.9253Z" fill="#3F3F3F"/>
<path d="M21.2278 23.6388C21.2278 23.6388 19.6233 24.7852 18.7851 24.2554C18.5857 24.1293 18.4121 23.9637 18.2743 23.768C18.1365 23.5722 18.0372 23.3502 17.982 23.1147C17.9268 22.8791 17.9169 22.6345 17.9527 22.3949C17.9885 22.1553 18.0695 21.9254 18.1909 21.7183C18.4361 21.3 18.8312 21.0001 19.2894 20.8843C19.5162 20.827 19.7517 20.8167 19.9825 20.8539C20.2132 20.8911 20.4346 20.9752 20.634 21.1012C21.4722 21.632 21.2278 23.6388 21.2278 23.6388Z" fill="black"/>
<path d="M28.5085 33.4443C28.5273 33.5916 28.5801 33.732 28.6623 33.8536C28.7446 33.9752 28.8539 34.0743 28.9809 34.1426C29.108 34.211 29.249 34.2464 29.3921 34.246C29.5352 34.2456 29.676 34.2094 29.8027 34.1403L31.7405 33.0825L30.7112 30.568C30.643 30.4013 30.5291 30.2592 30.3837 30.1592C30.2383 30.0593 30.0678 30.0059 29.8934 30.0059H24.4303C24.2494 30.0059 24.0728 30.0633 23.9241 30.1704C23.7754 30.2774 23.6618 30.429 23.5983 30.6049L22.6294 33.2846L24.6854 34.1634C24.808 34.2157 24.9402 34.2389 25.0726 34.2312C25.2049 34.2235 25.3339 34.1853 25.4501 34.1192C25.5663 34.0531 25.6669 33.9608 25.7443 33.8492C25.8218 33.7375 25.8742 33.6093 25.8978 33.4739M22.0543 42.0252C22.0543 42.0252 21.4161 50.1419 24.7281 51.1979C27.0792 51.9483 29.3058 51.6899 30.1165 50.9671C30.8943 50.2748 32.4561 46.8372 31.7405 42.0252" stroke="black" stroke-width="2.5" stroke-miterlimit="10" stroke-linecap="round" stroke-linejoin="round"/>
<path d="M34.3459 23.6388C34.3459 23.6388 35.9503 24.7852 36.7886 24.2554C37.1913 24.0008 37.4802 23.5905 37.5917 23.1147C37.7031 22.6389 37.628 22.1366 37.3828 21.7183C37.1376 21.3001 36.7425 21.0001 36.2843 20.8843C35.8261 20.7686 35.3425 20.8466 34.9397 21.1012C34.1006 21.632 34.3459 23.6388 34.3459 23.6388Z" fill="black"/>
<path d="M17.7783 35.3906C17.356 38.7155 19.764 40.6983 21.5863 41.7044C22.1051 41.9938 22.6938 42.1203 23.2806 42.0683C23.8674 42.0163 24.427 41.7882 24.8911 41.4118L27.1845 39.5435L29.4796 41.4118C29.9436 41.7881 30.503 42.0162 31.0896 42.0683C31.6762 42.1204 32.2648 41.9943 32.7836 41.7053C34.6058 40.6983 37.0147 38.7146 36.5925 35.3896" stroke="black" stroke-width="2.5" stroke-miterlimit="10" stroke-linecap="round" stroke-linejoin="round"/>
<path d="M12.7334 22.0221C10.6747 26.7852 12.2827 34.0452 12.8401 36.2153C12.9477 36.6353 12.9077 37.0814 12.7272 37.4735L10.9601 41.3448C10.4063 42.5587 8.83296 42.7784 8.00007 41.751C5.16184 38.2562 0.392066 31.2372 2.17784 26.3495C8.45607 9.171 16.2836 9.60208 16.2836 9.60208C18.8125 7.81685 27.9316 3.19777 38.3387 10.4098C38.3387 10.4098 46.0116 8.82393 51.617 26.0439C53.2196 30.9704 48.5681 37.9212 45.7939 41.4085C44.9663 42.4489 43.3796 42.2328 42.8232 41.0135L41.0676 37.1688C40.887 36.7768 40.847 36.3307 40.9547 35.9107C41.513 33.7405 43.1201 26.4805 41.0614 21.7175" stroke="black" stroke-width="2.5" stroke-miterlimit="10" stroke-linecap="round" stroke-linejoin="round"/>
<path d="M41.7822 38.7349C41.7822 38.7349 39.0471 44.9389 34.8453 46.3697M12.2773 39.202C12.2773 39.202 15.0133 44.8161 19.2151 46.2469M27.1849 39.5435V36.7466" stroke="black" stroke-width="2.5" stroke-miterlimit="10" stroke-linecap="round" stroke-linejoin="round"/>
<path d="M31.465 4.17741C34.1316 3.71587 36.7983 10.1774 36.7983 10.1774C36.7983 10.1774 43.9094 7.40818 44.7983 9.25433C45.6872 11.1005 42.5761 16.639 41.2428 17.1005C39.0205 18.0236 36.7983 10.1774 36.7983 10.1774C36.7983 10.1774 31.0205 13.8698 28.7983 12.4851C26.5761 11.1004 28.7983 4.63895 31.465 4.17741Z" fill="#FF007A"/>
<path d="M36.7983 10.1774C36.7983 10.1774 34.1316 3.71587 31.465 4.17741C28.7983 4.63895 26.5761 11.1004 28.7983 12.4851C31.0205 13.8698 36.7983 10.1774 36.7983 10.1774ZM36.7983 10.1774C36.7983 10.1774 43.9094 7.40818 44.7983 9.25433C45.6872 11.1005 42.5761 16.639 41.2428 17.1005C39.0205 18.0236 36.7983 10.1774 36.7983 10.1774Z" stroke="black" stroke-width="2.5"/>
</svg>
