<svg width="42" height="42" viewBox="0 0 42 42" fill="none" xmlns="http://www.w3.org/2000/svg">
<rect width="42" height="42" rx="21" fill="#F4F4F4"/>
<path fill-rule="evenodd" clip-rule="evenodd" d="M29.64 21.1999C29.64 20.5599 29.58 19.9499 29.48 19.3599H21V22.8399H25.84C25.63 23.9599 25 24.9199 24.04 25.5599V27.8199H26.95C28.65 26.2499 29.63 23.9499 29.63 21.1999H29.64Z" fill="#4285F4"/>
<path fill-rule="evenodd" clip-rule="evenodd" d="M21 30C23.43 30 25.47 29.19 26.96 27.82L24.05 25.56C23.24 26.1 22.21 26.42 21 26.42C18.66 26.42 16.67 24.84 15.96 22.71H12.96V25.04C14.44 27.98 17.48 30 21 30Z" fill="#34A853"/>
<path fill-rule="evenodd" clip-rule="evenodd" d="M15.96 22.71C15.78 22.17 15.68 21.59 15.68 21C15.68 20.41 15.78 19.83 15.96 19.29V16.96H12.96C12.35 18.18 12 19.55 12 21C12 22.45 12.35 23.83 12.96 25.04L15.97 22.71H15.96Z" fill="#FBBC05"/>
<path fill-rule="evenodd" clip-rule="evenodd" d="M21 15.5798C22.32 15.5798 23.51 16.0298 24.44 16.9298L27.02 14.3498C25.46 12.8998 23.42 12.0098 21 12.0098C17.48 11.9998 14.44 14.0198 12.96 16.9598L15.97 19.2898C16.68 17.1598 18.66 15.5798 21.01 15.5798H21Z" fill="#EA4335"/>
</svg>
