<svg width="848" height="468" viewBox="0 0 848 468" fill="none" xmlns="http://www.w3.org/2000/svg">
<g clip-path="url(#clip0_1380_3091)">
<path d="M611.98 318.37C567.06 318.37 558.77 307.66 558.77 264.47V141.33C558.77 98.1399 567.06 87.7799 611.98 87.7799H719.57C739.61 87.7799 746.17 103.67 746.17 116.8C746.17 129.93 739.26 146.17 719.57 146.17H636.85C630.63 146.17 627.87 148.24 627.87 156.19V250.65C627.87 258.6 630.63 260.67 636.85 260.67H715.17C735.21 260.67 741.08 276.56 741.08 289.69C741.08 302.82 734.86 318.37 715.17 318.37H611.98ZM774.63 237.02C774.63 234.73 772.77 232.87 770.48 232.87H718.8C698.07 232.87 689.78 217.32 689.78 203.16C689.78 189 697.73 173.45 718.8 173.45H770.48C772.77 173.45 774.63 171.59 774.63 169.3V112.24C774.63 90.1299 790.87 83.9099 808.84 83.9099C826.81 83.9099 843.39 90.4699 843.39 112.24V363.7C843.39 382.69 828 398.08 809.01 398.08C790.02 398.08 774.63 382.69 774.63 363.7V237.03V237.02Z" stroke="#2F58AC" stroke-width="8.5" stroke-miterlimit="10"/>
<path d="M388.87 258.53C388.87 258.53 379.31 251.75 368.71 251.75C357.21 251.75 338.23 260.94 338.23 280.7M308.57 112.63C229.25 112.63 198.5 108.62 198.5 51.36C198.5 48.38 196.36 25.29 226.81 25.29H296.62H354.04C369.11 25.29 369.08 43.24 369.08 58.31C369.02 109.06 368.68 235.93 368.71 251.74M369.08 172.47C369.08 172.47 364.44 204.04 328.91 204.04C312.04 204.04 303.05 196.5 298.26 188.58C293.77 181.15 292.49 172.2 294.22 163.69L312.47 98.75M338.23 280.69C336.32 299.34 341.45 315.97 360.01 318.63C364.79 319.32 369.93 319.82 374.67 319.82H424.4H506.49C514.92 319.82 521.75 312.99 521.75 304.56V36.16C520.63 8.52002 500.34 4.24002 486.55 4.25002C457.13 4.25002 450.43 14.96 450.43 50.51L450.49 109.53C450.49 111.67 448.71 113.38 446.57 113.29L438.43 113.46C436.43 113.38 434.86 111.72 434.87 109.72L435.32 50.1C435.33 30.09 435.53 4.25002 402.2 4.44002C381.09 4.56002 369.08 9.62002 368.7 44.88M458.72 257.54C457.12 256.62 455.96 255.08 450.49 253.83L450.45 173.88C450.45 172.08 448.99 170.63 447.19 170.63H436.86C435.21 170.63 433.87 171.97 433.87 173.62V252.02C421.88 252.16 407.51 255.82 401.32 270.92C392.16 293.36 399.13 316.9 423.19 319.83" stroke="#2F58AC" stroke-width="8.5" stroke-linecap="round" stroke-linejoin="round"/>
<path d="M277.28 48.1C277.981 48.1 278.55 46.9673 278.55 45.57C278.55 44.1728 277.981 43.04 277.28 43.04C276.579 43.04 276.01 44.1728 276.01 45.57C276.01 46.9673 276.579 48.1 277.28 48.1Z" fill="black" stroke="#2F58AC" stroke-width="8.5" stroke-miterlimit="10"/>
<path d="M250.11 87.8001C251.28 89.2801 273.96 95.7301 276.02 69.1001" stroke="#2F58AC" stroke-width="8.5" stroke-linecap="round"/>
<path d="M433.88 252.03L450.49 253.84" stroke="#2F58AC" stroke-width="8.5" stroke-linecap="round" stroke-linejoin="round"/>
<path d="M147.08 394.7V429.01C147.08 448.17 131.55 463.7 112.39 463.7C93.23 463.7 77.7 448.17 77.7 429.01V394.7H32.83C12.42 394.7 4.25 381.1 4.25 367.15C4.25 353.2 12.07 339.26 32.83 339.26H330.48C330.67 339.26 382.68 339.26 382.85 339.26H478.4C499.15 339.26 519.89 339.26 540.64 339.26C542.5 339.13 552.59 338.63 560.78 346.13C566.7 351.55 569.2 359.46 569.2 367.15C569.2 381.09 561.04 394.7 540.63 394.7C540.44 394.7 510.6 394.7 510.41 394.7C510.18 394.7 476.56 394.7 476.32 394.7C474.81 394.7 160.92 394.7 147.07 394.7H147.08ZM201.45 134.02C218.46 134.02 224.92 146.61 224.92 158.17C224.92 169.73 218.46 181.3 201.45 181.3H76.31C70.18 181.3 67.13 184.02 67.13 189.46V197.96H224.58C241.93 197.96 248.39 209.18 248.39 220.75C248.39 232.32 241.59 243.53 224.58 243.53H67.13V251.69C67.13 257.81 70.19 259.85 76.31 259.85H249.07C266.42 259.85 272.88 271.75 272.88 283.32C272.88 294.89 266.08 306.45 249.07 306.45H47.07C11.36 306.45 6.6 292.17 6.6 258.83V181.97C6.6 148.98 11.37 134.01 47.07 134.01H201.45V134.02Z" stroke="#2F58AC" stroke-width="8.5"/>
<path d="M198.55 57.71C197.15 80.73 230.23 66.42 239.66 49.6C241.93 45.55 240.77 40.47 237.15 37.56C226.3 28.82 201.24 13.68 198.55 57.71Z" fill="black" stroke="#2F58AC" stroke-width="8.5" stroke-miterlimit="10"/>
</g>
<defs>
<clipPath id="clip0_1380_3091">
<rect width="847.65" height="467.95" fill="white"/>
</clipPath>
</defs>
</svg>
