<svg width="35" height="34" viewBox="0 0 35 34" fill="none" xmlns="http://www.w3.org/2000/svg">
<path d="M21.2956 11.9939C19.8407 11.9939 19.5 11.6476 19.5 10C19.5 8.35243 19.7674 6.22743 21.2224 6.22743C22.6773 6.22743 23.2321 8.33767 23.2321 9.98524C23.2321 11.6328 22.7506 11.9939 21.2956 11.9939ZM26.9898 23.9557C26.3618 27.7248 23.4624 30.4444 20.0919 30.4444H15.3398C11.9693 30.4444 9.0699 27.7248 8.44186 23.9557L8.09644 21.9019C5.09234 21.4392 2.78955 18.5052 2.78955 14.9844C2.78955 11.4635 5.20748 8.38281 8.30579 8.0217C9.04896 5.09896 11.4355 3 14.1988 3C15.4758 3 16.69 3.4401 17.7054 4.2526C18.7207 3.4401 19.9454 3 21.2119 3C23.9752 3 26.3618 5.09896 27.1154 8.0217C30.2137 8.38281 32.6317 11.3507 32.6317 14.9731C32.6317 18.5955 30.3289 21.428 27.3248 21.8906L26.9793 23.9444L26.9898 23.9557ZM8.93382 17.9748C7.47887 17.9748 6.29608 16.6319 6.29608 14.9844C6.29608 13.3368 6.85084 11.362 8.93382 11.9939C10.3364 12.4227 11.5716 13.3368 11.5716 14.9844C11.5716 16.6319 10.3888 17.9748 8.93382 17.9748ZM24.4881 14.9844C24.4881 13.3255 25.7233 12.4115 27.1259 11.9939C29.2089 11.362 29.7636 13.3368 29.7636 14.9844C29.7636 16.6319 28.5808 17.9748 27.1259 17.9748C25.6709 17.9748 24.4881 16.6319 24.4881 14.9844ZM14.1988 11.9939C12.7439 11.9939 12.1787 11.6476 12.1787 10C12.1787 8.35243 12.7439 6.23872 14.1988 6.23872C15.6538 6.23872 16 8.35243 16 10C16 11.6476 15.6538 11.9939 14.1988 11.9939ZM12.1787 24.9488C12.5032 25.2986 12.88 25.5469 13.2987 25.7274C13.7174 25.9193 14.1674 26.0096 14.6175 26.0096C15.0676 26.0096 15.5177 25.9193 15.9364 25.7274C16.3551 25.5356 16.7319 25.2648 17.0564 24.9262L17.7158 24.2153L18.3753 24.9262C19.0242 25.6259 19.893 26.0096 20.8037 26.0096C21.7143 26.0096 22.5936 25.6146 23.2321 24.9262C23.881 24.2266 24.2369 23.2899 24.2369 22.3082C24.2369 21.3264 23.8706 20.3785 23.2321 19.6901L21.2956 18.3359L17.7054 16.2483L14.3349 18.3359L12.1787 19.6901C11.8542 20.0399 11.603 20.4462 11.4355 20.8976C11.268 21.349 11.1738 21.8342 11.1738 22.3194C11.1738 22.8047 11.268 23.2899 11.4355 23.7413C11.603 24.1927 11.8646 24.599 12.1787 24.9488Z" stroke="black" stroke-width="2" stroke-miterlimit="10"/>
</svg>
