<svg width="30" height="30" viewBox="0 0 30 30" fill="none" xmlns="http://www.w3.org/2000/svg">
<g clip-path="url(#clip0_1717_1518)">
<path d="M23.0449 9.45303L19.6015 4.47889C19.3463 4.11099 19.007 3.80922 18.6119 3.59856C18.2168 3.38791 17.7772 3.27445 17.3295 3.26758L10.7947 3.17383H10.7812C7.40748 3.17383 4.81893 3.73814 3.15176 6.49223C1.59961 9.05582 0.9375 13.4228 0.9375 21.0938V22.0313H3.07951L1.70063 29.0626H3.61137L4.99025 22.0313H5.625C7.15615 22.045 8.63125 21.4559 9.73172 20.3912C10.7266 19.4393 11.4442 18.137 11.8071 16.6251L11.8103 16.6115L13.4183 8.90635H11.5029L9.98068 16.2006C9.51709 18.1154 8.13082 20.1563 5.625 20.1563H2.81602C2.86693 13.5197 3.47121 9.58492 4.75576 7.46295C5.83389 5.6817 7.40977 5.04941 10.7747 5.04854L17.3026 5.14229C17.4518 5.14456 17.5983 5.18237 17.73 5.25259C17.8618 5.32281 17.9748 5.42341 18.0599 5.54605L21.9551 11.1722L27.1875 12.0443V13.038L26.3149 17.6915C26.0574 19.065 25.6172 19.7569 23.8119 19.9738L16.4112 21.2399L16.3622 29.0626H18.2372L18.2763 22.8228L24.0595 21.8325C25.3697 21.6715 26.3363 21.2492 27.0142 20.5421C27.5937 19.9376 27.9463 19.1652 28.1579 18.0371L29.0625 13.2122C29.0625 13.2122 29.0625 11.1722 29.0625 10.4559C29.0625 9.73967 25.2472 9.9077 23.0449 9.45303Z" fill="black"/>
<circle cx="18" cy="10" r="1" fill="black"/>
<path d="M28 14C27.7778 15.588 25.0667 18.5908 16 17.8979" stroke="black"/>
<circle cx="28" cy="11" r="2" fill="black"/>
</g>
<defs>
<clipPath id="clip0_1717_1518">
<rect width="30" height="30" fill="white"/>
</clipPath>
</defs>
</svg>
