<svg width="52" height="52" viewBox="0 0 52 52" fill="none" xmlns="http://www.w3.org/2000/svg">
<g clip-path="url(#clip0_650_1658)">
<path d="M15.0099 10.3647L11.004 11.9182L4.55281 19.4729L0.546936 29.0187L2.32867 33.6832C3.44677 37.0512 5.4658 40.0658 8.7799 42.5667L11.004 39.6042C11.004 39.6042 14.4066 46.4524 20.5602 47.5643C20.5602 47.5643 29.6941 49.2824 34.44 46.7856C37.4847 45.1839 38.3695 42.8637 38.3695 42.8637L41.4101 39.829L42.8178 41.9003L44.6719 41.8281L49.4943 35.3893L51.0508 30.5803L50.902 26.5821L48.8266 21.6968L44.5271 15.1095C44.5271 15.1095 42.1542 10.7421 37.2594 11.6292C37.2594 11.6292 31.4759 7.33801 26.7299 8.00437C21.984 8.67073 22.6517 6.89243 15.0099 10.3727V10.3647Z" fill="white"/>
<path d="M26.1347 39.3833L23.3918 41.5309H21.1676L21.0912 44.9349L21.7588 48.0419L22.7241 49.744L25.2459 51.0767L29.3242 50.5588L30.7359 49.0053L31.6247 45.232L31.4035 41.6794L29.6218 41.9002L26.1347 39.3833Z" fill="#EA5A47"/>
<path d="M23.0177 30.207L21.61 33.5388L23.5366 34.6508L24.6507 35.0963L28.5077 35.2449L31.1019 33.2458L29.5454 30.3596L23.0177 30.211V30.207Z" fill="#3F3F3F"/>
<path d="M20.3551 24.1575C20.3551 24.1575 18.7503 25.2614 17.9097 24.7516C17.7086 24.6312 17.5357 24.4706 17.3989 24.2819C17.2622 24.0933 17.1616 23.8805 17.1053 23.6517C17.049 23.4269 17.041 23.1901 17.0772 22.9572C17.1134 22.7284 17.1938 22.5036 17.3145 22.3069C17.5598 21.9055 17.954 21.6165 18.4125 21.5041C18.6377 21.4479 18.875 21.4399 19.1083 21.476C19.3375 21.5121 19.5628 21.5924 19.7598 21.7128C20.6004 22.2226 20.3551 24.1535 20.3551 24.1535V24.1575Z" fill="black"/>
<path d="M27.643 33.591C27.6631 33.7315 27.7154 33.868 27.7959 33.9844C27.8763 34.1008 27.9889 34.1972 28.1136 34.2614C28.2423 34.3256 28.3831 34.3617 28.5238 34.3617C28.6686 34.3617 28.8094 34.3256 28.9341 34.2614L30.8727 33.2418L29.843 30.8212C29.7747 30.6606 29.6621 30.5242 29.5132 30.4278C29.3685 30.3315 29.1955 30.2793 29.0226 30.2793H23.5527C23.3717 30.2793 23.1947 30.3355 23.0459 30.4359C22.8971 30.5402 22.7845 30.6847 22.7201 30.8533L21.7509 33.4304L23.8101 34.2774C23.9348 34.3296 24.0635 34.3497 24.1962 34.3417C24.3289 34.3336 24.4576 34.2975 24.5743 34.2333C24.6909 34.1691 24.7915 34.0807 24.8679 33.9724C24.9443 33.864 24.9966 33.7395 25.0207 33.6111M21.1717 41.8402C21.1717 41.8402 20.5322 49.6518 23.8503 50.6674C26.2032 51.39 28.4354 51.1411 29.2438 50.4467C30.024 49.7803 31.5846 46.4726 30.8687 41.8402" stroke="black" stroke-width="2.43275" stroke-linecap="round" stroke-linejoin="round"/>
<path d="M33.4869 24.1577C33.4869 24.1577 35.0917 25.2616 35.9323 24.7518C36.3345 24.5069 36.6241 24.1135 36.7367 23.6559C36.8493 23.1983 36.7729 22.7166 36.5275 22.3111C36.2822 21.9057 35.8881 21.6207 35.4296 21.5083C34.971 21.3959 34.4884 21.4722 34.0822 21.717C33.2416 22.2268 33.4869 24.1577 33.4869 24.1577Z" fill="black"/>
<path d="M16.9004 35.4653C16.4781 38.6647 18.8872 40.5714 20.7132 41.5428C21.232 41.8198 21.8233 41.9443 22.4105 41.8921C22.9977 41.8439 23.5567 41.6231 24.0233 41.2618L26.3198 39.4635L28.6164 41.2618C29.0829 41.6231 29.642 41.8439 30.2292 41.8921C30.8164 41.9443 31.4076 41.8198 31.9264 41.5428C33.7524 40.5754 36.1616 38.6647 35.7393 35.4653" stroke="black" stroke-width="2.43275" stroke-linecap="round" stroke-linejoin="round"/>
<path d="M11.8487 22.6C9.78945 27.1842 11.3982 34.169 11.9573 36.2563C12.0659 36.6618 12.0257 37.0913 11.8447 37.4686L10.075 41.1938C9.51998 42.3619 7.94337 42.5747 7.11082 41.5832C4.26729 38.2193 -0.50678 31.4674 1.28299 26.7627C7.56531 10.2323 15.4041 10.6497 15.4041 10.6497C17.938 8.93165 27.0678 4.48793 37.4847 11.4285C37.4847 11.4285 45.1667 9.90309 50.7813 26.4737C52.3861 31.2145 47.7287 37.9022 44.9495 41.258C44.121 42.2576 42.5323 42.0529 41.9732 40.8767L40.2156 37.1756C40.0346 36.7983 39.9944 36.3687 40.103 35.9633C40.6621 33.8759 42.2709 26.8872 40.2116 22.307" stroke="black" stroke-width="2.43275" stroke-linecap="round" stroke-linejoin="round"/>
<path d="M40.9356 38.6852C40.9356 38.6852 38.1967 44.6543 33.9897 46.0312M11.3943 39.1348C11.3943 39.1348 14.1332 44.5379 18.3402 45.9148M26.3198 39.4639V36.7744" stroke="black" stroke-width="2.43275" stroke-linecap="round" stroke-linejoin="round"/>
<path d="M22.913 12.5122C23.1348 11.5371 23.1347 11.5371 23.1345 11.537L23.1341 11.5369L23.1327 11.5366L23.1278 11.5355L23.1103 11.5316L23.0449 11.5171C22.9882 11.5046 22.9057 11.4867 22.8002 11.4644C22.5895 11.4198 22.287 11.3577 21.9166 11.2868C21.1768 11.1453 20.1607 10.9676 19.0596 10.8246C17.9622 10.682 16.7603 10.5711 15.6546 10.5689C15.1079 10.5678 14.5517 10.5927 14.027 10.6646V10.4115L13.6069 10.5946C13.5729 10.432 13.5386 10.2568 13.5049 10.0759C13.4256 9.64915 13.3544 9.21597 13.3029 8.88771C13.2772 8.72404 13.2565 8.58747 13.2423 8.49211L13.2298 8.40712C13.2297 8.38798 13.2296 8.36406 13.2298 8.33571C13.2302 8.24693 13.2322 8.11518 13.239 7.95091C13.2526 7.62092 13.2849 7.16707 13.359 6.67066C13.5157 5.62148 13.8284 4.60551 14.3449 4.04627C17.4513 0.682576 22.1358 0.544278 26.4631 1.5275C28.5983 2.01265 30.5673 2.75591 32.0728 3.43721C32.8243 3.77731 33.4539 4.0991 33.9244 4.36085C34.4175 4.63516 34.6808 4.8133 34.7438 4.86563C34.9025 4.999 35.4315 5.54291 36.2041 6.38193C36.9526 7.19473 37.8767 8.22572 38.7906 9.27402C39.7054 10.3233 40.6039 11.3832 41.3034 12.2551C41.6537 12.6918 41.9479 13.0736 42.1673 13.3793C42.277 13.5322 42.363 13.6591 42.4261 13.7598C42.4533 13.8033 42.4744 13.8389 42.4902 13.8671C42.4411 13.9144 42.3509 13.9853 42.1993 14.0687C41.7595 14.3108 41.1887 14.4541 40.9885 14.5002L40.9863 14.5007C40.0213 14.7253 38.135 14.9003 36.0205 14.8463C33.9062 14.7923 31.689 14.5118 30.0309 13.8952C30.0308 13.8952 30.0307 13.8952 30.0306 13.8951L29.682 14.8324C25.5635 13.299 22.913 12.5122 22.913 12.5122ZM22.913 12.5122L23.1976 11.5535L23.1665 11.5443L23.1348 11.5371L22.913 12.5122Z" fill="#18478E" stroke="black" stroke-width="2"/>
</g>
<defs>
<clipPath id="clip0_650_1658">
<rect width="52" height="52" fill="white"/>
</clipPath>
</defs>
</svg>
