<svg width="120" height="100" viewBox="0 0 120 100" fill="none" xmlns="http://www.w3.org/2000/svg">
<path d="M60.024 81.888C58.04 82.272 56.152 82.416 54.392 82.448V77.328H52.28V84.208H53.528C55.608 84.208 57.864 84.064 60.264 83.584L60.024 81.888ZM55.768 87.264H61.224V89.552H55.768V87.264ZM53.688 91.2H63.288V85.616H53.688V91.2ZM65.24 79.744H63.288V76.64H61.176V84.928H63.288V81.472H65.24V79.744Z" fill="black"/>
<path d="M1 20C1 9.52237 9.64245 1 20.339 1H99.661C110.358 1 119 9.52237 119 20V80C119 90.4776 110.358 99 99.661 99H20.339C9.64245 99 1 90.4776 1 80V20Z" stroke="black" stroke-width="2"/>
<g clip-path="url(#clip0_1821_3277)">
<path d="M48.0099 25.3647L44.004 26.9182L37.5528 34.4729L33.5469 44.0187L35.3287 48.6832C36.4468 52.0512 38.4658 55.0658 41.7799 57.5667L44.004 54.6042C44.004 54.6042 47.4066 61.4524 53.5602 62.5643C53.5602 62.5643 62.6941 64.2824 67.44 61.7856C70.4847 60.1839 71.3695 57.8637 71.3695 57.8637L74.4101 54.829L75.8178 56.9003L77.6719 56.8281L82.4943 50.3893L84.0508 45.5803L83.902 41.5821L81.8266 36.6968L77.5271 30.1095C77.5271 30.1095 75.1542 25.7421 70.2594 26.6292C70.2594 26.6292 64.4759 22.338 59.7299 23.0044C54.984 23.6707 55.6517 21.8924 48.0099 25.3727V25.3647Z" fill="white"/>
<path d="M59.1347 54.3833L56.3918 56.5309H54.1676L54.0912 59.9349L54.7588 63.0419L55.7241 64.744L58.2459 66.0767L62.3242 65.5588L63.7359 64.0053L64.6247 60.232L64.4035 56.6794L62.6218 56.9002L59.1347 54.3833Z" fill="#EA5A47"/>
<path d="M56.0177 45.207L54.61 48.5388L56.5366 49.6508L57.6507 50.0963L61.5077 50.2449L64.1019 48.2458L62.5454 45.3596L56.0177 45.211V45.207Z" fill="#3F3F3F"/>
<path d="M53.3551 39.1575C53.3551 39.1575 51.7503 40.2614 50.9097 39.7516C50.7086 39.6312 50.5357 39.4706 50.3989 39.2819C50.2622 39.0933 50.1616 38.8805 50.1053 38.6517C50.049 38.4269 50.041 38.1901 50.0772 37.9572C50.1134 37.7284 50.1938 37.5036 50.3145 37.3069C50.5598 36.9055 50.954 36.6165 51.4125 36.5041C51.6377 36.4479 51.875 36.4399 52.1083 36.476C52.3375 36.5121 52.5628 36.5924 52.7598 36.7128C53.6004 37.2226 53.3551 39.1535 53.3551 39.1535V39.1575Z" fill="black"/>
<path d="M60.643 48.591C60.6631 48.7315 60.7154 48.868 60.7959 48.9844C60.8763 49.1008 60.9889 49.1972 61.1136 49.2614C61.2423 49.3256 61.3831 49.3617 61.5238 49.3617C61.6686 49.3617 61.8094 49.3256 61.9341 49.2614L63.8727 48.2418L62.843 45.8212C62.7747 45.6606 62.6621 45.5242 62.5132 45.4278C62.3685 45.3315 62.1955 45.2793 62.0226 45.2793H56.5527C56.3717 45.2793 56.1947 45.3355 56.0459 45.4359C55.8971 45.5402 55.7845 45.6847 55.7201 45.8533L54.7509 48.4304L56.8101 49.2774C56.9348 49.3296 57.0635 49.3497 57.1962 49.3417C57.3289 49.3336 57.4576 49.2975 57.5743 49.2333C57.6909 49.1691 57.7915 49.0807 57.8679 48.9724C57.9443 48.864 57.9966 48.7395 58.0207 48.6111M54.1717 56.8402C54.1717 56.8402 53.5322 64.6518 56.8503 65.6674C59.2032 66.39 61.4354 66.1411 62.2438 65.4467C63.024 64.7803 64.5846 61.4726 63.8687 56.8402" stroke="black" stroke-width="2.43275" stroke-linecap="round" stroke-linejoin="round"/>
<path d="M66.4869 39.1577C66.4869 39.1577 68.0917 40.2616 68.9323 39.7518C69.3345 39.5069 69.6241 39.1135 69.7367 38.6559C69.8493 38.1983 69.7729 37.7166 69.5275 37.3111C69.2822 36.9057 68.8881 36.6207 68.4296 36.5083C67.971 36.3959 67.4884 36.4722 67.0822 36.717C66.2416 37.2268 66.4869 39.1577 66.4869 39.1577Z" fill="black"/>
<path d="M49.9004 50.4653C49.4781 53.6647 51.8872 55.5714 53.7132 56.5428C54.232 56.8198 54.8233 56.9443 55.4105 56.8921C55.9977 56.8439 56.5567 56.6231 57.0233 56.2618L59.3198 54.4635L61.6164 56.2618C62.0829 56.6231 62.642 56.8439 63.2292 56.8921C63.8164 56.9443 64.4076 56.8198 64.9264 56.5428C66.7524 55.5754 69.1616 53.6647 68.7393 50.4653" stroke="black" stroke-width="2.43275" stroke-linecap="round" stroke-linejoin="round"/>
<path d="M44.8487 37.5999C42.7895 42.1841 44.3982 49.1688 44.9573 51.2562C45.0659 51.6616 45.0257 52.0911 44.8447 52.4685L43.075 56.1937C42.52 57.3618 40.9434 57.5745 40.1108 56.583C37.2673 53.2191 32.4932 46.4672 34.283 41.7626C40.5653 25.2321 48.4041 25.6496 48.4041 25.6496C48.4041 25.6496 60.0678 19.4878 70.4847 26.4283C70.4847 26.4283 78.1667 24.9029 83.7813 41.4736C85.3861 46.2143 80.7287 52.902 77.9495 56.2579C77.121 57.2574 75.5323 57.0527 74.9732 55.8765L73.2156 52.1754C73.0346 51.7981 72.9944 51.3686 73.103 50.9631C73.6621 48.8758 75.2709 41.887 73.2116 37.3068" stroke="black" stroke-width="2.43275" stroke-linecap="round" stroke-linejoin="round"/>
<path d="M73.9356 53.6852C73.9356 53.6852 71.1967 59.6543 66.9897 61.0312M44.3943 54.1348C44.3943 54.1348 47.1332 59.5379 51.3402 60.9148M59.3198 54.4639V51.7744" stroke="black" stroke-width="2.43275" stroke-linecap="round" stroke-linejoin="round"/>
<path d="M62.5002 28.667C55.3002 24.667 48.1663 25.667 45.9997 26.0003C44.4997 24.667 41.9434 19.3339 46.9718 17.167C52.0002 15 60.7589 17.447 65.5004 20C72.0004 23.5 75.167 26.667 76.5004 29.0003C75.3337 31.0004 69.7002 32.667 62.5002 28.667Z" fill="#18478E" stroke="black" stroke-width="2.43"/>
</g>
<defs>
<clipPath id="clip0_1821_3277">
<rect width="52" height="52" fill="white" transform="translate(33 15)"/>
</clipPath>
</defs>
</svg>
