<svg width="50" height="50" viewBox="0 0 50 50" fill="none" xmlns="http://www.w3.org/2000/svg">
<circle cx="25" cy="25" r="24.5" fill="white" stroke="black"/>
<path fill-rule="evenodd" clip-rule="evenodd" d="M33.9142 19.9142C34.6953 19.1332 34.6953 17.8668 33.9142 17.0858C33.1332 16.3047 31.8668 16.3047 31.0858 17.0858L25 23.1716L18.9142 17.0858C18.1332 16.3047 16.8668 16.3047 16.0858 17.0858C15.3047 17.8668 15.3047 19.1332 16.0858 19.9142L22.1716 26L16.0858 32.0858C15.3047 32.8668 15.3047 34.1332 16.0858 34.9142C16.8668 35.6953 18.1332 35.6953 18.9142 34.9142L25 28.8284L31.0858 34.9142C31.8668 35.6953 33.1332 35.6953 33.9142 34.9142C34.6953 34.1332 34.6953 32.8668 33.9142 32.0858L27.8284 26L33.9142 19.9142Z" fill="#F33C3C"/>
</svg>
