<svg width="50" height="50" viewBox="0 0 50 50" fill="none" xmlns="http://www.w3.org/2000/svg">
<circle cx="25" cy="25" r="24.5" fill="white" stroke="black"/>
<path d="M35.9952 16.945C35.3599 16.3284 34.6056 15.8392 33.7754 15.5055C32.9451 15.1718 32.0553 15 31.1566 15C30.258 15 29.3681 15.1718 28.5379 15.5055C27.7077 15.8392 26.9534 16.3284 26.3181 16.945L24.9997 18.224L23.6812 16.945C22.398 15.7 20.6575 15.0006 18.8427 15.0006C17.0279 15.0006 15.2874 15.7 14.0042 16.945C12.7209 18.1899 12 19.8784 12 21.6389C12 23.3995 12.7209 25.088 14.0042 26.3329L15.3226 27.612L24.9997 37L34.6767 27.612L35.9952 26.3329C36.6307 25.7166 37.1349 24.9849 37.4789 24.1794C37.8229 23.374 38 22.5108 38 21.6389C38 20.7671 37.8229 19.9039 37.4789 19.0985C37.1349 18.293 36.6307 17.5613 35.9952 16.945Z" fill="#3363AC"/>
</svg>
